<svg xmlns="http://www.w3.org/2000/svg" xmlns:xlink="http://www.w3.org/1999/xlink" xmlns:svgjs="http://svgjs.dev/svgjs" version="1.1" viewBox="-0.8 155.36 808.52 625.24"><g transform="matrix(1,0,0,1,-0.9090909090909918,-1.5145161290323017)"><svg xmlns="http://www.w3.org/2000/svg" xmlns:xlink="http://www.w3.org/1999/xlink" viewBox="0 0 396 248" data-background-color="#ffffff" preserveAspectRatio="xMidYMid meet" height="939" width="1000"><g id="tight-bounds" transform="matrix(1,0,0,1,0.2400000000000091,0.4000000000000057)"><svg viewBox="0 0 395.52 247.2" height="247.2" width="395.52"><g><svg/></g><g><svg viewBox="0 0 395.52 247.2" height="247.2" width="395.52"><g transform="matrix(1,0,0,1,75.54432,47.576811693768136)"><svg viewBox="0 0 244.43135999999998 152.04637661246372" height="152.04637661246372" width="244.43135999999998"><g><svg viewBox="0 0 245.5940215519413 152.7696" height="152.04637661246372" width="244.43135999999998"><g transform="matrix(1,0,0,1,116.09539024023468,0)"><svg viewBox="0 0 129.49863131170662 152.7696" height="152.7696" width="129.49863131170662"><g id="textblocktransform"><svg viewBox="0 0 129.49863131170662 152.7696" height="152.7696" width="129.49863131170662" id="textblock"><g><svg viewBox="0 0 129.49863131170662 152.7696" height="152.7696" width="129.49863131170662"><g transform="matrix(1,0,0,1,0,0)"><svg width="129.49863131170662" viewBox="-0.85 -35.45 30.05 35.45" height="152.7696" data-palette-color="#000000"><path d="M6.15 0L-0.85 0 13.9-35.45 14.4-35.45 29.2 0 22.4 0 20.45-5.05 8-5.05 6.15 0ZM14.1-22.2L13.3-19.4 9.8-9.9 18.6-9.9 14.95-19.4 14.1-22.2Z" opacity="1" transform="matrix(1,0,0,1,0,0)" fill="#000000" class="wordmark-text-0" data-fill-palette-color="primary" id="text-0"/></svg></g></svg></g></svg></g></svg></g><g transform="matrix(1,0,0,1,0,36.33747243179221)"><svg viewBox="0 0 80.03015415063469 80.09465513641558" height="80.09465513641558" width="80.03015415063469"><g><svg xmlns="http://www.w3.org/2000/svg" xmlns:xlink="http://www.w3.org/1999/xlink" version="1.1" x="0" y="0" viewBox="14.018 14.049 71.964 72.02199999999999" enable-background="new 0 0 100 100" xml:space="preserve" height="80.09465513641558" width="80.03015415063469" class="icon-icon-0" data-fill-palette-color="accent" id="icon-0"><g display="none" fill="#000000" data-fill-palette-color="accent"><path display="inline" d="M75.408 75.404L73.154 59.608 73.164 59.577 85.936 50 73.165 40.425 73.155 40.386 75.409 24.584 59.608 26.842A0.1 0.1 0 0 1 59.581 26.832L49.999 14.062 40.427 26.833C40.413 26.835 40.406 26.839 40.398 26.843L24.591 24.583 26.849 40.395C26.845 40.405 26.845 40.411 26.841 40.418L14.064 50 26.843 59.583C26.843 59.589 26.847 59.595 26.847 59.599L24.59 75.404 40.393 73.15C40.401 73.156 40.413 73.158 40.422 73.162L49.998 85.937 59.584 73.162C59.592 73.158 59.6 73.156 59.607 73.15z" fill="#eab308" data-fill-palette-color="accent"/></g><g display="none" fill="#eab308" data-fill-palette-color="accent"><polygon display="inline" points="49.998,15.005 41.692,41.841 14.018,41.841 36.558,57.984 27.836,84.994 49.998,68.314    72.172,84.932 63.647,58.051 85.982,41.841 58.214,41.841  " fill="#eab308" data-fill-palette-color="accent"/></g><g fill="#000000" data-fill-palette-color="accent"><path d="M57.814 42.184L50 14.049 42.184 42.184 14.047 49.999 42.184 57.818 50 85.951 57.814 57.818 85.953 49.999zM49.982 55.972A5.988 5.988 0 1 1 49.986 43.996 5.988 5.988 0 0 1 49.982 55.972" fill="#000000" data-fill-palette-color="accent"/></g><g display="none" fill="#eab308" data-fill-palette-color="accent"><polygon display="inline" points="26.717,41.535 14.018,54.232 39.418,79.631 85.982,33.066 73.276,20.369 39.418,54.232  " fill="#000000" data-fill-palette-color="accent"/></g><g display="none" fill="#eab308" data-fill-palette-color="accent"><polygon display="inline" points="28.023,86.071 52.012,86.071 76,50.087 52.012,14.107 28.023,14.107 52.012,50.087  " fill="#eab308" data-fill-palette-color="accent"/></g></svg></g></svg></g></svg></g></svg></g><g><path d="M0 123.6c0-68.262 55.338-123.6 123.6-123.6 30.65 0 58.694 11.156 80.294 29.63l-11.008 0c-19.38-14.313-43.345-22.774-69.286-22.774-64.476 0-116.744 52.268-116.744 116.744 0 64.476 52.268 116.744 116.744 116.744 25.941 0 49.906-8.461 69.286-22.774h11.008c-21.599 18.473-49.644 29.63-80.294 29.63-68.262 0-123.6-55.338-123.6-123.6z" fill="#000000" stroke="transparent" data-fill-palette-color="tertiary"/></g></svg></g><defs/></svg><rect width="395.52" height="247.2" fill="none" stroke="none" visibility="hidden"/></g></svg></g></svg>